<mxfile host="app.diagrams.net" modified="2024-01-28T14:28:20.420Z" agent="Mozilla/5.0 (Windows NT 10.0; Win64; x64) AppleWebKit/537.36 (KHTML, like Gecko) Chrome/121.0.0.0 Safari/537.36" etag="Idw1kce1C68iwi6IRCqm" version="23.0.2" type="github">
  <diagram name="第 1 页" id="1sTqLYYf4km9OQXEMfxo">
    <mxGraphModel dx="614" dy="285" grid="0" gridSize="10" guides="1" tooltips="1" connect="1" arrows="1" fold="1" page="0" pageScale="1" pageWidth="827" pageHeight="1169" math="0" shadow="0">
      <root>
        <mxCell id="0" />
        <mxCell id="1" parent="0" />
        <mxCell id="dMPjOtFgpPPqgFT5n9wA-11" style="edgeStyle=orthogonalEdgeStyle;rounded=1;orthogonalLoop=1;jettySize=auto;html=1;entryX=0;entryY=0.5;entryDx=0;entryDy=0;" edge="1" parent="1" source="dMPjOtFgpPPqgFT5n9wA-1" target="dMPjOtFgpPPqgFT5n9wA-2">
          <mxGeometry relative="1" as="geometry" />
        </mxCell>
        <mxCell id="dMPjOtFgpPPqgFT5n9wA-1" value="task_struct" style="rounded=1;whiteSpace=wrap;html=1;" vertex="1" parent="1">
          <mxGeometry x="127" y="168" width="75" height="26" as="geometry" />
        </mxCell>
        <mxCell id="dMPjOtFgpPPqgFT5n9wA-5" style="edgeStyle=orthogonalEdgeStyle;rounded=1;orthogonalLoop=1;jettySize=auto;html=1;entryX=0.5;entryY=1;entryDx=0;entryDy=0;" edge="1" parent="1" source="dMPjOtFgpPPqgFT5n9wA-2" target="dMPjOtFgpPPqgFT5n9wA-4">
          <mxGeometry relative="1" as="geometry" />
        </mxCell>
        <mxCell id="dMPjOtFgpPPqgFT5n9wA-8" value="cgroups" style="edgeLabel;html=1;align=center;verticalAlign=middle;resizable=0;points=[];" vertex="1" connectable="0" parent="dMPjOtFgpPPqgFT5n9wA-5">
          <mxGeometry x="-0.4437" relative="1" as="geometry">
            <mxPoint as="offset" />
          </mxGeometry>
        </mxCell>
        <mxCell id="dMPjOtFgpPPqgFT5n9wA-12" style="edgeStyle=orthogonalEdgeStyle;rounded=1;orthogonalLoop=1;jettySize=auto;html=1;entryX=0;entryY=0.5;entryDx=0;entryDy=0;" edge="1" parent="1" source="dMPjOtFgpPPqgFT5n9wA-2" target="dMPjOtFgpPPqgFT5n9wA-3">
          <mxGeometry relative="1" as="geometry" />
        </mxCell>
        <mxCell id="dMPjOtFgpPPqgFT5n9wA-2" value="task_struct" style="rounded=1;whiteSpace=wrap;html=1;" vertex="1" parent="1">
          <mxGeometry x="246" y="168" width="75" height="26" as="geometry" />
        </mxCell>
        <mxCell id="dMPjOtFgpPPqgFT5n9wA-3" value="task_struct" style="rounded=1;whiteSpace=wrap;html=1;" vertex="1" parent="1">
          <mxGeometry x="363" y="168" width="75" height="26" as="geometry" />
        </mxCell>
        <mxCell id="dMPjOtFgpPPqgFT5n9wA-15" style="edgeStyle=orthogonalEdgeStyle;rounded=1;orthogonalLoop=1;jettySize=auto;html=1;entryX=0;entryY=0.5;entryDx=0;entryDy=0;exitX=0.136;exitY=0.975;exitDx=0;exitDy=0;exitPerimeter=0;" edge="1" parent="1" source="dMPjOtFgpPPqgFT5n9wA-4" target="dMPjOtFgpPPqgFT5n9wA-1">
          <mxGeometry relative="1" as="geometry">
            <Array as="points">
              <mxPoint x="256" y="141" />
              <mxPoint x="107" y="141" />
              <mxPoint x="107" y="181" />
            </Array>
          </mxGeometry>
        </mxCell>
        <mxCell id="dMPjOtFgpPPqgFT5n9wA-16" value="tasks" style="edgeLabel;html=1;align=center;verticalAlign=middle;resizable=0;points=[];" vertex="1" connectable="0" parent="dMPjOtFgpPPqgFT5n9wA-15">
          <mxGeometry x="0.0537" relative="1" as="geometry">
            <mxPoint as="offset" />
          </mxGeometry>
        </mxCell>
        <mxCell id="dMPjOtFgpPPqgFT5n9wA-85" style="edgeStyle=orthogonalEdgeStyle;rounded=1;orthogonalLoop=1;jettySize=auto;html=1;entryX=0;entryY=0.25;entryDx=0;entryDy=0;exitX=0;exitY=0.5;exitDx=0;exitDy=0;" edge="1" parent="1" source="dMPjOtFgpPPqgFT5n9wA-4" target="dMPjOtFgpPPqgFT5n9wA-62">
          <mxGeometry relative="1" as="geometry">
            <Array as="points">
              <mxPoint x="76" y="117" />
              <mxPoint x="76" y="241" />
              <mxPoint x="246" y="241" />
            </Array>
          </mxGeometry>
        </mxCell>
        <mxCell id="dMPjOtFgpPPqgFT5n9wA-4" value="css_set" style="rounded=1;whiteSpace=wrap;html=1;" vertex="1" parent="1">
          <mxGeometry x="246" y="104" width="75" height="26" as="geometry" />
        </mxCell>
        <mxCell id="dMPjOtFgpPPqgFT5n9wA-6" style="edgeStyle=orthogonalEdgeStyle;rounded=1;orthogonalLoop=1;jettySize=auto;html=1;entryX=0.7;entryY=1.002;entryDx=0;entryDy=0;entryPerimeter=0;" edge="1" parent="1" source="dMPjOtFgpPPqgFT5n9wA-3" target="dMPjOtFgpPPqgFT5n9wA-4">
          <mxGeometry relative="1" as="geometry">
            <Array as="points">
              <mxPoint x="401" y="157" />
              <mxPoint x="299" y="157" />
            </Array>
          </mxGeometry>
        </mxCell>
        <mxCell id="dMPjOtFgpPPqgFT5n9wA-10" value="cgroups" style="edgeLabel;html=1;align=center;verticalAlign=middle;resizable=0;points=[];" vertex="1" connectable="0" parent="dMPjOtFgpPPqgFT5n9wA-6">
          <mxGeometry x="-0.2065" y="-1" relative="1" as="geometry">
            <mxPoint as="offset" />
          </mxGeometry>
        </mxCell>
        <mxCell id="dMPjOtFgpPPqgFT5n9wA-7" style="edgeStyle=orthogonalEdgeStyle;rounded=1;orthogonalLoop=1;jettySize=auto;html=1;entryX=0.298;entryY=0.973;entryDx=0;entryDy=0;entryPerimeter=0;" edge="1" parent="1" source="dMPjOtFgpPPqgFT5n9wA-1" target="dMPjOtFgpPPqgFT5n9wA-4">
          <mxGeometry relative="1" as="geometry">
            <Array as="points">
              <mxPoint x="171" y="154" />
              <mxPoint x="268" y="154" />
            </Array>
          </mxGeometry>
        </mxCell>
        <mxCell id="dMPjOtFgpPPqgFT5n9wA-9" value="cgroups" style="edgeLabel;html=1;align=center;verticalAlign=middle;resizable=0;points=[];" vertex="1" connectable="0" parent="dMPjOtFgpPPqgFT5n9wA-7">
          <mxGeometry x="-0.0537" y="1" relative="1" as="geometry">
            <mxPoint as="offset" />
          </mxGeometry>
        </mxCell>
        <mxCell id="dMPjOtFgpPPqgFT5n9wA-13" value="cg_list" style="text;html=1;align=center;verticalAlign=middle;resizable=0;points=[];autosize=1;strokeColor=none;fillColor=none;" vertex="1" parent="1">
          <mxGeometry x="194" y="160" width="52" height="26" as="geometry" />
        </mxCell>
        <mxCell id="dMPjOtFgpPPqgFT5n9wA-14" value="cg_list" style="text;html=1;align=center;verticalAlign=middle;resizable=0;points=[];autosize=1;strokeColor=none;fillColor=none;" vertex="1" parent="1">
          <mxGeometry x="314" y="160" width="52" height="26" as="geometry" />
        </mxCell>
        <mxCell id="dMPjOtFgpPPqgFT5n9wA-53" style="edgeStyle=orthogonalEdgeStyle;rounded=1;orthogonalLoop=1;jettySize=auto;html=1;entryX=0;entryY=0.5;entryDx=0;entryDy=0;" edge="1" parent="1" source="dMPjOtFgpPPqgFT5n9wA-54" target="dMPjOtFgpPPqgFT5n9wA-58">
          <mxGeometry relative="1" as="geometry" />
        </mxCell>
        <mxCell id="dMPjOtFgpPPqgFT5n9wA-54" value="task_struct" style="rounded=1;whiteSpace=wrap;html=1;" vertex="1" parent="1">
          <mxGeometry x="127" y="299" width="75" height="26" as="geometry" />
        </mxCell>
        <mxCell id="dMPjOtFgpPPqgFT5n9wA-55" style="edgeStyle=orthogonalEdgeStyle;rounded=1;orthogonalLoop=1;jettySize=auto;html=1;entryX=0.5;entryY=1;entryDx=0;entryDy=0;" edge="1" parent="1" source="dMPjOtFgpPPqgFT5n9wA-58" target="dMPjOtFgpPPqgFT5n9wA-62">
          <mxGeometry relative="1" as="geometry" />
        </mxCell>
        <mxCell id="dMPjOtFgpPPqgFT5n9wA-56" value="cgroups" style="edgeLabel;html=1;align=center;verticalAlign=middle;resizable=0;points=[];" vertex="1" connectable="0" parent="dMPjOtFgpPPqgFT5n9wA-55">
          <mxGeometry x="-0.4437" relative="1" as="geometry">
            <mxPoint as="offset" />
          </mxGeometry>
        </mxCell>
        <mxCell id="dMPjOtFgpPPqgFT5n9wA-57" style="edgeStyle=orthogonalEdgeStyle;rounded=1;orthogonalLoop=1;jettySize=auto;html=1;entryX=0;entryY=0.5;entryDx=0;entryDy=0;" edge="1" parent="1" source="dMPjOtFgpPPqgFT5n9wA-58" target="dMPjOtFgpPPqgFT5n9wA-59">
          <mxGeometry relative="1" as="geometry" />
        </mxCell>
        <mxCell id="dMPjOtFgpPPqgFT5n9wA-58" value="task_struct" style="rounded=1;whiteSpace=wrap;html=1;" vertex="1" parent="1">
          <mxGeometry x="246" y="299" width="75" height="26" as="geometry" />
        </mxCell>
        <mxCell id="dMPjOtFgpPPqgFT5n9wA-59" value="task_struct" style="rounded=1;whiteSpace=wrap;html=1;" vertex="1" parent="1">
          <mxGeometry x="363" y="299" width="75" height="26" as="geometry" />
        </mxCell>
        <mxCell id="dMPjOtFgpPPqgFT5n9wA-60" style="edgeStyle=orthogonalEdgeStyle;rounded=1;orthogonalLoop=1;jettySize=auto;html=1;entryX=0;entryY=0.5;entryDx=0;entryDy=0;exitX=0.136;exitY=0.975;exitDx=0;exitDy=0;exitPerimeter=0;" edge="1" parent="1" source="dMPjOtFgpPPqgFT5n9wA-62" target="dMPjOtFgpPPqgFT5n9wA-54">
          <mxGeometry relative="1" as="geometry">
            <Array as="points">
              <mxPoint x="256" y="272" />
              <mxPoint x="107" y="272" />
              <mxPoint x="107" y="312" />
            </Array>
          </mxGeometry>
        </mxCell>
        <mxCell id="dMPjOtFgpPPqgFT5n9wA-61" value="tasks" style="edgeLabel;html=1;align=center;verticalAlign=middle;resizable=0;points=[];" vertex="1" connectable="0" parent="dMPjOtFgpPPqgFT5n9wA-60">
          <mxGeometry x="0.0537" relative="1" as="geometry">
            <mxPoint as="offset" />
          </mxGeometry>
        </mxCell>
        <mxCell id="dMPjOtFgpPPqgFT5n9wA-86" style="edgeStyle=orthogonalEdgeStyle;rounded=1;orthogonalLoop=1;jettySize=auto;html=1;exitX=0;exitY=0.5;exitDx=0;exitDy=0;" edge="1" parent="1" source="dMPjOtFgpPPqgFT5n9wA-62">
          <mxGeometry relative="1" as="geometry">
            <mxPoint x="239" y="374" as="targetPoint" />
            <Array as="points">
              <mxPoint x="76" y="248" />
              <mxPoint x="76" y="374" />
              <mxPoint x="240" y="374" />
            </Array>
          </mxGeometry>
        </mxCell>
        <mxCell id="dMPjOtFgpPPqgFT5n9wA-62" value="css_set" style="rounded=1;whiteSpace=wrap;html=1;" vertex="1" parent="1">
          <mxGeometry x="246" y="235" width="75" height="26" as="geometry" />
        </mxCell>
        <mxCell id="dMPjOtFgpPPqgFT5n9wA-63" style="edgeStyle=orthogonalEdgeStyle;rounded=1;orthogonalLoop=1;jettySize=auto;html=1;entryX=0.7;entryY=1.002;entryDx=0;entryDy=0;entryPerimeter=0;" edge="1" parent="1" source="dMPjOtFgpPPqgFT5n9wA-59" target="dMPjOtFgpPPqgFT5n9wA-62">
          <mxGeometry relative="1" as="geometry">
            <Array as="points">
              <mxPoint x="401" y="288" />
              <mxPoint x="299" y="288" />
            </Array>
          </mxGeometry>
        </mxCell>
        <mxCell id="dMPjOtFgpPPqgFT5n9wA-64" value="cgroups" style="edgeLabel;html=1;align=center;verticalAlign=middle;resizable=0;points=[];" vertex="1" connectable="0" parent="dMPjOtFgpPPqgFT5n9wA-63">
          <mxGeometry x="-0.2065" y="-1" relative="1" as="geometry">
            <mxPoint as="offset" />
          </mxGeometry>
        </mxCell>
        <mxCell id="dMPjOtFgpPPqgFT5n9wA-65" style="edgeStyle=orthogonalEdgeStyle;rounded=1;orthogonalLoop=1;jettySize=auto;html=1;entryX=0.298;entryY=0.973;entryDx=0;entryDy=0;entryPerimeter=0;" edge="1" parent="1" source="dMPjOtFgpPPqgFT5n9wA-54" target="dMPjOtFgpPPqgFT5n9wA-62">
          <mxGeometry relative="1" as="geometry">
            <Array as="points">
              <mxPoint x="171" y="285" />
              <mxPoint x="268" y="285" />
            </Array>
          </mxGeometry>
        </mxCell>
        <mxCell id="dMPjOtFgpPPqgFT5n9wA-66" value="cgroups" style="edgeLabel;html=1;align=center;verticalAlign=middle;resizable=0;points=[];" vertex="1" connectable="0" parent="dMPjOtFgpPPqgFT5n9wA-65">
          <mxGeometry x="-0.0537" y="1" relative="1" as="geometry">
            <mxPoint as="offset" />
          </mxGeometry>
        </mxCell>
        <mxCell id="dMPjOtFgpPPqgFT5n9wA-67" value="cg_list" style="text;html=1;align=center;verticalAlign=middle;resizable=0;points=[];autosize=1;strokeColor=none;fillColor=none;" vertex="1" parent="1">
          <mxGeometry x="194" y="291" width="52" height="26" as="geometry" />
        </mxCell>
        <mxCell id="dMPjOtFgpPPqgFT5n9wA-68" value="cg_list" style="text;html=1;align=center;verticalAlign=middle;resizable=0;points=[];autosize=1;strokeColor=none;fillColor=none;" vertex="1" parent="1">
          <mxGeometry x="314" y="291" width="52" height="26" as="geometry" />
        </mxCell>
        <mxCell id="dMPjOtFgpPPqgFT5n9wA-69" style="edgeStyle=orthogonalEdgeStyle;rounded=1;orthogonalLoop=1;jettySize=auto;html=1;entryX=0;entryY=0.5;entryDx=0;entryDy=0;" edge="1" parent="1" source="dMPjOtFgpPPqgFT5n9wA-70" target="dMPjOtFgpPPqgFT5n9wA-74">
          <mxGeometry relative="1" as="geometry" />
        </mxCell>
        <mxCell id="dMPjOtFgpPPqgFT5n9wA-70" value="task_struct" style="rounded=1;whiteSpace=wrap;html=1;" vertex="1" parent="1">
          <mxGeometry x="121" y="426" width="75" height="26" as="geometry" />
        </mxCell>
        <mxCell id="dMPjOtFgpPPqgFT5n9wA-71" style="edgeStyle=orthogonalEdgeStyle;rounded=1;orthogonalLoop=1;jettySize=auto;html=1;entryX=0.5;entryY=1;entryDx=0;entryDy=0;" edge="1" parent="1" source="dMPjOtFgpPPqgFT5n9wA-74" target="dMPjOtFgpPPqgFT5n9wA-78">
          <mxGeometry relative="1" as="geometry" />
        </mxCell>
        <mxCell id="dMPjOtFgpPPqgFT5n9wA-72" value="cgroups" style="edgeLabel;html=1;align=center;verticalAlign=middle;resizable=0;points=[];" vertex="1" connectable="0" parent="dMPjOtFgpPPqgFT5n9wA-71">
          <mxGeometry x="-0.4437" relative="1" as="geometry">
            <mxPoint as="offset" />
          </mxGeometry>
        </mxCell>
        <mxCell id="dMPjOtFgpPPqgFT5n9wA-73" style="edgeStyle=orthogonalEdgeStyle;rounded=1;orthogonalLoop=1;jettySize=auto;html=1;entryX=0;entryY=0.5;entryDx=0;entryDy=0;" edge="1" parent="1" source="dMPjOtFgpPPqgFT5n9wA-74" target="dMPjOtFgpPPqgFT5n9wA-75">
          <mxGeometry relative="1" as="geometry" />
        </mxCell>
        <mxCell id="dMPjOtFgpPPqgFT5n9wA-74" value="task_struct" style="rounded=1;whiteSpace=wrap;html=1;" vertex="1" parent="1">
          <mxGeometry x="240" y="426" width="75" height="26" as="geometry" />
        </mxCell>
        <mxCell id="dMPjOtFgpPPqgFT5n9wA-75" value="task_struct" style="rounded=1;whiteSpace=wrap;html=1;" vertex="1" parent="1">
          <mxGeometry x="357" y="426" width="75" height="26" as="geometry" />
        </mxCell>
        <mxCell id="dMPjOtFgpPPqgFT5n9wA-76" style="edgeStyle=orthogonalEdgeStyle;rounded=1;orthogonalLoop=1;jettySize=auto;html=1;entryX=0;entryY=0.5;entryDx=0;entryDy=0;exitX=0.136;exitY=0.975;exitDx=0;exitDy=0;exitPerimeter=0;" edge="1" parent="1" source="dMPjOtFgpPPqgFT5n9wA-78" target="dMPjOtFgpPPqgFT5n9wA-70">
          <mxGeometry relative="1" as="geometry">
            <Array as="points">
              <mxPoint x="250" y="399" />
              <mxPoint x="101" y="399" />
              <mxPoint x="101" y="439" />
            </Array>
          </mxGeometry>
        </mxCell>
        <mxCell id="dMPjOtFgpPPqgFT5n9wA-77" value="tasks" style="edgeLabel;html=1;align=center;verticalAlign=middle;resizable=0;points=[];" vertex="1" connectable="0" parent="dMPjOtFgpPPqgFT5n9wA-76">
          <mxGeometry x="0.0537" relative="1" as="geometry">
            <mxPoint as="offset" />
          </mxGeometry>
        </mxCell>
        <mxCell id="dMPjOtFgpPPqgFT5n9wA-78" value="css_set" style="rounded=1;whiteSpace=wrap;html=1;" vertex="1" parent="1">
          <mxGeometry x="240" y="362" width="75" height="26" as="geometry" />
        </mxCell>
        <mxCell id="dMPjOtFgpPPqgFT5n9wA-79" style="edgeStyle=orthogonalEdgeStyle;rounded=1;orthogonalLoop=1;jettySize=auto;html=1;entryX=0.7;entryY=1.002;entryDx=0;entryDy=0;entryPerimeter=0;" edge="1" parent="1" source="dMPjOtFgpPPqgFT5n9wA-75" target="dMPjOtFgpPPqgFT5n9wA-78">
          <mxGeometry relative="1" as="geometry">
            <Array as="points">
              <mxPoint x="395" y="415" />
              <mxPoint x="293" y="415" />
            </Array>
          </mxGeometry>
        </mxCell>
        <mxCell id="dMPjOtFgpPPqgFT5n9wA-80" value="cgroups" style="edgeLabel;html=1;align=center;verticalAlign=middle;resizable=0;points=[];" vertex="1" connectable="0" parent="dMPjOtFgpPPqgFT5n9wA-79">
          <mxGeometry x="-0.2065" y="-1" relative="1" as="geometry">
            <mxPoint as="offset" />
          </mxGeometry>
        </mxCell>
        <mxCell id="dMPjOtFgpPPqgFT5n9wA-81" style="edgeStyle=orthogonalEdgeStyle;rounded=1;orthogonalLoop=1;jettySize=auto;html=1;entryX=0.298;entryY=0.973;entryDx=0;entryDy=0;entryPerimeter=0;" edge="1" parent="1" source="dMPjOtFgpPPqgFT5n9wA-70" target="dMPjOtFgpPPqgFT5n9wA-78">
          <mxGeometry relative="1" as="geometry">
            <Array as="points">
              <mxPoint x="165" y="412" />
              <mxPoint x="262" y="412" />
            </Array>
          </mxGeometry>
        </mxCell>
        <mxCell id="dMPjOtFgpPPqgFT5n9wA-82" value="cgroups" style="edgeLabel;html=1;align=center;verticalAlign=middle;resizable=0;points=[];" vertex="1" connectable="0" parent="dMPjOtFgpPPqgFT5n9wA-81">
          <mxGeometry x="-0.0537" y="1" relative="1" as="geometry">
            <mxPoint as="offset" />
          </mxGeometry>
        </mxCell>
        <mxCell id="dMPjOtFgpPPqgFT5n9wA-83" value="cg_list" style="text;html=1;align=center;verticalAlign=middle;resizable=0;points=[];autosize=1;strokeColor=none;fillColor=none;" vertex="1" parent="1">
          <mxGeometry x="188" y="418" width="52" height="26" as="geometry" />
        </mxCell>
        <mxCell id="dMPjOtFgpPPqgFT5n9wA-84" value="cg_list" style="text;html=1;align=center;verticalAlign=middle;resizable=0;points=[];autosize=1;strokeColor=none;fillColor=none;" vertex="1" parent="1">
          <mxGeometry x="308" y="418" width="52" height="26" as="geometry" />
        </mxCell>
      </root>
    </mxGraphModel>
  </diagram>
</mxfile>
